<svg width="18" height="16" viewBox="0 0 18 16" fill="none" xmlns="http://www.w3.org/2000/svg">
<g clip-path="url(#clip0_2_746)">
<path d="M2.25 1.14286C2.25 0.839753 2.13147 0.549062 1.9205 0.334735C1.70952 0.120408 1.42337 0 1.125 0C0.826631 0 0.540483 0.120408 0.329505 0.334735C0.118526 0.549062 0 0.839753 0 1.14286L0 13.1429C0 13.9006 0.296316 14.6273 0.823762 15.1632C1.35121 15.699 2.06658 16 2.8125 16H16.875C17.1734 16 17.4595 15.8796 17.6705 15.6653C17.8815 15.4509 18 15.1602 18 14.8571C18 14.554 17.8815 14.2633 17.6705 14.049C17.4595 13.8347 17.1734 13.7143 16.875 13.7143H2.8125C2.66332 13.7143 2.52024 13.6541 2.41475 13.5469C2.30926 13.4398 2.25 13.2944 2.25 13.1429V1.14286ZM9.88875 3.18857L7.3125 5.80571L5.29875 3.76C5.08691 3.5448 4.79959 3.4239 4.5 3.4239C4.20041 3.4239 3.91309 3.5448 3.70125 3.76C3.48941 3.9752 3.3704 4.26708 3.3704 4.57143C3.3704 4.87577 3.48941 5.16765 3.70125 5.38286L6.51375 8.24C6.61833 8.34712 6.74276 8.43214 6.87985 8.49016C7.01694 8.54818 7.16399 8.57806 7.3125 8.57806C7.46101 8.57806 7.60806 8.54818 7.74515 8.49016C7.88224 8.43214 8.00667 8.34712 8.11125 8.24L10.6875 5.62286L12.7013 7.66857L11.5763 8.81143C11.4552 8.92998 11.3717 9.08257 11.3366 9.24963C11.3015 9.41669 11.3164 9.59059 11.3792 9.74903C11.4421 9.90747 11.5501 10.0432 11.6895 10.1388C11.8288 10.2345 11.9931 10.2856 12.1613 10.2857H16.0312C16.1425 10.2873 16.2529 10.2661 16.3559 10.2236C16.459 10.1811 16.5526 10.118 16.6312 10.0381C16.7099 9.95819 16.772 9.86308 16.8139 9.7584C16.8557 9.65371 16.8765 9.54156 16.875 9.42857V5.49714C16.8749 5.32773 16.8253 5.16215 16.7326 5.02133C16.6398 4.88052 16.5081 4.77077 16.354 4.70596C16.2 4.64114 16.0304 4.62417 15.8668 4.65718C15.7033 4.69019 15.553 4.77171 15.435 4.89143L14.31 6.03429L11.4975 3.17714C11.3929 3.07002 11.2685 2.985 11.1314 2.92698C10.9943 2.86896 10.8473 2.83909 10.6988 2.83909C10.5502 2.83909 10.4032 2.86896 10.2661 2.92698C10.129 2.985 10.0046 3.07002 9.9 3.17714L9.88875 3.18857Z" fill="#F2E3D5"/>
</g>
<defs>
<clipPath id="clip0_2_746">
<rect width="18" height="16" fill="white"/>
</clipPath>
</defs>
</svg>
