<svg width="13" height="13" viewBox="0 0 13 13" fill="none" xmlns="http://www.w3.org/2000/svg">
<path d="M9.74907 5.27343C9.74907 4.38823 9.48658 3.52291 8.99479 2.78689C8.503 2.05088 7.804 1.47722 6.98618 1.13847C6.16837 0.799719 5.26846 0.711087 4.40027 0.88378C3.53208 1.05647 2.7346 1.48274 2.10867 2.10867C1.48274 2.7346 1.05647 3.53208 0.88378 4.40027C0.711087 5.26846 0.799719 6.16837 1.13847 6.98618C1.47722 7.804 2.05088 8.503 2.78689 8.99479C3.52291 9.48658 4.38823 9.74907 5.27343 9.74907C6.46044 9.74907 7.59884 9.27753 8.43819 8.43819C9.27753 7.59884 9.74907 6.46044 9.74907 5.27343ZM8.71561 9.29337C7.67842 10.1812 6.33771 10.6329 4.97472 10.5536C3.61174 10.4744 2.33241 9.87038 1.4051 8.86833C0.477786 7.86628 -0.0254376 6.54406 0.000990672 5.17903C0.0274189 3.814 0.581445 2.51225 1.54685 1.54685C2.51225 0.581445 3.814 0.0274189 5.17903 0.000990672C6.54406 -0.0254376 7.86628 0.477786 8.86833 1.4051C9.87038 2.33241 10.4744 3.61174 10.5536 4.97472C10.6329 6.33771 10.1812 7.67842 9.29337 8.71561L12.882 12.3124C12.9576 12.3879 13 12.4904 13 12.5972C13 12.704 12.9576 12.8065 12.882 12.882C12.8065 12.9576 12.704 13 12.5972 13C12.4904 13 12.3879 12.9576 12.3124 12.882L8.71561 9.29337Z" fill="#F2E3D5"/>
</svg>
